<svg width="22" height="24" viewBox="0 0 22 24" fill="none" xmlns="http://www.w3.org/2000/svg">
<path fill-rule="evenodd" clip-rule="evenodd" d="M18.35 9.87879H17.3V6.69697C17.3 3.18636 14.4755 0.333332 11 0.333332C7.5245 0.333332 4.7 3.18636 4.7 6.69697V9.87879H3.65C1.907 9.87879 0.5 11.3 0.5 13.0606V20.4848C0.5 22.2455 1.907 23.6667 3.65 23.6667H18.35C20.093 23.6667 21.5 22.2455 21.5 20.4848V13.0606C21.5 11.3 20.093 9.87879 18.35 9.87879ZM6.8 6.69697C6.8 4.35303 8.6795 2.45454 11 2.45454C13.3205 2.45454 15.2 4.35303 15.2 6.69697V9.87879H6.8V6.69697ZM19.4 20.4848C19.4 21.0682 18.9275 21.5455 18.35 21.5455H3.65C3.0725 21.5455 2.6 21.0682 2.6 20.4848V13.0606C2.6 12.4773 3.0725 12 3.65 12H18.35C18.9275 12 19.4 12.4773 19.4 13.0606V20.4848Z" fill="white"/>
<path d="M6.8 17.303C7.3799 17.303 7.85 16.8282 7.85 16.2424C7.85 15.6567 7.3799 15.1818 6.8 15.1818C6.2201 15.1818 5.75 15.6567 5.75 16.2424C5.75 16.8282 6.2201 17.303 6.8 17.303Z" fill="white"/>
<path d="M11 17.303C11.5799 17.303 12.05 16.8282 12.05 16.2424C12.05 15.6567 11.5799 15.1818 11 15.1818C10.4201 15.1818 9.94995 15.6567 9.94995 16.2424C9.94995 16.8282 10.4201 17.303 11 17.303Z" fill="white"/>
<path d="M15.2 17.303C15.7799 17.303 16.25 16.8282 16.25 16.2424C16.25 15.6567 15.7799 15.1818 15.2 15.1818C14.6201 15.1818 14.15 15.6567 14.15 16.2424C14.15 16.8282 14.6201 17.303 15.2 17.303Z" fill="white"/>
</svg>
