<?xml version="1.0" encoding="utf-8"?>
<!-- Generator: Adobe Illustrator 26.0.3, SVG Export Plug-In . SVG Version: 6.00 Build 0)  -->
<svg version="1.1" id="圖層_1" xmlns="http://www.w3.org/2000/svg" xmlns:xlink="http://www.w3.org/1999/xlink" x="0px" y="0px"
	 viewBox="0 0 793.7 85" style="enable-background:new 0 0 793.7 85;" xml:space="preserve">
<style type="text/css">
	.st0{fill:#FFFFFF;}
</style>
<g>
	<g>
		<g>
			<path class="st0" d="M41.2,45.4c0.1-1.4,0.2-3.1,0.2-3.1l-3.5-1.2c0,0-5.8,14.5-9.8,21.9c-0.4,0.6-0.7,1.2-0.9,1.6
				c-0.8,1.6-1.1,2.2-1.4,3c-0.5,1.6-0.2,3.5,0.2,4.6c0.4,0.9,1.3,1.9,1.9,2.3c1.4,1,2.4,1.2,3.4,1.2c0.2,0,0.3,0,0.5,0
				c1.3-0.1,2.1-0.7,2.8-1.3c1.8-1.5,3-4.2,4.1-10C39.9,58.5,40.6,52,41.2,45.4z"/>
			<path class="st0" d="M302.5,4.4h-14l0.1,52.1l-27.4,0.2v5l27.5-0.4l0,18.1c0,0,6.2,0,6.9,0h0c1.5,0,3.9,0.1,4.8-0.3
				c1.5-0.6,2.1-2.2,2.1-4v-14l6.5-0.1c1.6,0,3-1.4,3-3v-1.8l-9.4,0.1V4.4z"/>
			<path class="st0" d="M173.7,17.1c0.4,1.2,0.8,2.4,1.1,3.9c0.3,1.1,0.6,2.4,1.1,3.8c0.5,1.7,1.6,2.9,2.9,3.3
				c0.1,0,0.3,0.1,0.4,0.1c0,0,0.1,0,0.1,0c0.7,0,1.8-0.1,2.5-0.7c1.3-1.2,1.8-3.1,1.1-4.8c-0.9-2.3-3.7-5.3-5.6-7.4l0,0l-0.1-0.1
				c0,0,0,0,0,0L177,15l0,0l-0.1-0.1l-3.3,2.1L173.7,17.1z"/>
			<path class="st0" d="M168.8,6.5l0-1.5h-10.6v74.4h7.6c1.7,0,3-1.3,3-3V47.5h4.4v8c0,10.6-0.3,11.9,8.3,12.2
				c1.2,0.1,4,0.1,4.7,0.1c1,0,4.1-0.1,6.1-0.3c1.4-0.2,2.3-0.3,3.3-0.7c1.7-0.8,0.3-4.9,0.3-5l0-0.1c0,0-1.6,0.3-4.7,0.4
				c-3.1,0.1-4,0.1-6.3,0.1c-2.2-0.1-2.5-1.1-2.5-5.5v-9.2h16.3l0,31.9h7.9c1.7,0,3-1.3,3-3l0.1-69.8L168.8,6.5L168.8,6.5z
				 M198.8,33.5l0,9.3h-10.1v-9.3H198.8z M178.9,42.8h-10.1v-9.3h10.1V42.8z M198.8,29h-9.4c1.6-2.5,3.7-6.3,4.9-9
				c0.8-1.7-0.1-3.6-1.8-4.2l-3.8-1.2l-0.1,0.2c-1.1,4.1-3,9.9-4.7,14.2h-15.2V11.4h30L198.8,29z"/>
			<path class="st0" d="M45.6,50.5c6.4-2.9,11.1-7.2,13.3-9c2.7-2.3,4.7-4.6,6.4-6.8c1.1-1.4,1.9-2.7,2.9-4.6H79v2.1
				c0,10.2,0.8,10.9,11.9,11.3c0.6,0,2.8,0,3.5,0c1.8,0,2.7,0,4.2-0.1c4.2-0.2,5.8-0.4,7-0.7c2.6-0.7,0.9-5.5,0.8-5.7l-0.1-0.2
				l-0.4,0.1c-1.6,0.2-3.6,0.5-5.6,0.7c-2,0.1-3.7,0.3-6.3,0.1c-2.5-0.1-2.6-0.6-2.6-4.4v-3h12.5c1.7,0,3-1.3,3-3v-1.8H82.1v-6.5
				h21.7c1.7,0,3-1.3,3-3V14H82.1V4.5H67.8V14H44.9v4.8h22.9v6.5H44.9v4.8h11.6c-1.4,3.9-6.3,11.5-12.8,17.7L43.6,48l1.8,2.6
				L45.6,50.5z M56.7,30.1L56.7,30.1L56.7,30.1L56.7,30.1z"/>
			<path class="st0" d="M273,40.1L273,40.1c1.3,2.2,2.8,4.6,4.5,7.2c1.2,1.7,2.5,2.2,3.4,2.2l0.1,0c1.3,0,2.9-0.8,3.7-1.9
				c0.9-1.4,1.3-3.6-0.4-5.8c-0.9-1.1-2-2.1-3.2-3.1c0,0-0.1-0.1-0.1-0.1c-1.3-1.1-7.6-5.8-7.6-5.8l-1.1,0.8l0,0l-2.3,1.7l0.1,0.2
				C271,36.9,271.9,38.4,273,40.1z"/>
			<path class="st0" d="M272.9,19.7L272.9,19.7c1.2,2.2,2.6,4.7,4.3,7.3c1.1,1.8,2.4,2.2,3.3,2.3l0.1,0c1.3,0.1,2.9-0.7,3.7-1.8
				c1-1.3,1.4-3.5-0.2-5.7c-0.8-1.1-1.9-2.2-3.1-3.1c0,0-0.1-0.1-0.1-0.1c-1.3-1.1-7.5-5.8-7.5-5.8l-1,0.7l0,0l-2.3,1.6l0.1,0.2
				C271.1,16.4,271.9,17.9,272.9,19.7z"/>
			<path class="st0" d="M259.6,44.4c1,1.2,2.2,2.5,3.6,4.1c1.3,1.4,2.8,2,4.2,1.9h0c0.2,0,0.4-0.1,0.7-0.2c2.5-0.9,3.8-4.5,2.9-6.6
				c-2-4.8-10.2-8.8-14.3-10.5l0-3.3h8.6c1.7,0,3-1.3,3-3v-1.8h-11.6l0-10.6c2.1-0.6,4.2-1.3,5.9-1.9c0.1,0,0.1,0,0.1-0.1
				c0,0,0.1,0,0.1,0l0,0c1.8-0.8,2.4-3.2,1-4.7c0,0-0.1-0.1-0.1-0.1c-1.3-1.4-3-3.5-3-3.5l-0.1-0.1L260.4,4
				c-7.6,3.6-20.4,7.3-30.6,8.9l-0.3,0.1l0.8,3.5l0,0l0.3,1.6c0,0,5.4-0.1,12.6-1.1v7.9h-15.8v4.8h11.1c-1.2,9.2-8.6,27.9-12.5,33.8
				l-0.1,0.2l4,2.7l0.2-0.2c3.7-4.7,11.4-17.4,13.1-22.3l0,35.5c0,0,5.3,0,6,0c3.4,0,4.4,0,5.6-0.7c1.3-0.8,1.9-2.1,1.9-3.7V41.5
				C257.3,42,258.3,43.1,259.6,44.4z"/>
			<path class="st0" d="M128,50.7c-0.2,1.3-0.4,2.6-0.7,3.9c-1.1,6.4-2.2,13-3.5,18.9l0,0.1l3.9,1.3l0.1-0.1
				c2-3.9,5.8-14.2,6.9-17.3c1.1-3.1,1.5-4.3,1.5-4.3l-8.1-2.7L128,50.7z"/>
			<path class="st0" d="M150.3,52l-0.1-0.1l-3.2,1.2l0.1,0.5c0.3,3.1,0.8,8.2,1.7,12.4c0.4,1.9,1.4,3.2,2.8,3.6
				c0.3,0.1,1,0.2,1.3,0.2c0.7,0,1.5-0.2,2.1-0.7c1.4-1,2.8-3.5,1.4-6.7C155,59.2,153.1,55.8,150.3,52z"/>
			<path class="st0" d="M148.3,31.2L148.3,31.2c-0.3-0.3-0.4-0.4-0.6-0.6c1.3-1.7,2.6-3.3,3.7-4.7c1.3-1.7,2.6-3.4,3.9-5
				c1.1-1.4,0.7-3.5-0.8-4.4l-0.7-0.4c-0.1-0.1-0.2-0.1-0.3-0.2c-2.4-1.5-4.6-2.9-4.6-2.9s-3.4,5.3-8,11.7c-1.6-1.2-3.2-2.3-4.7-3.3
				c1.9-2.2,4.9-5.7,8-9.8c1.1-1.4,0.7-3.5-0.8-4.4l-0.3-0.2l-5.1-3L138,4.1c-2.6,5.4-6.2,10.2-8.5,13c-1.1-0.6-1.8-1-1.8-1l-2,4.1
				c5.4,4.3,9,7.8,11.1,10c-2.3,3-4.8,6-7.1,8.6c-1.4,1.5-2.6,2.7-3.7,3.7h-1.2v4.5h11.9l0,32.3h6.7c1.6,0,3-1.3,3-3V47.1h3.7
				c0.9,1.3,2.2,1.6,2.8,1.7c0.9,0.2,3-0.3,3.8-1c1.1-1,1.9-3.1,0.6-5.9C155.9,39,151.6,34,148.3,31.2z M139.9,39.6
				c1.3-1.4,2.6-2.8,4-4.4c0.9,1.1,3.2,4.1,4.7,7.3h-11.2C138,41.8,138.8,40.8,139.9,39.6z"/>
			<path class="st0" d="M91.5,68.3c-0.1-0.1-0.1-0.1-0.1-0.1s-3.4-1-8.2-3.3c1.5-0.9,2.9-1.9,4.4-3c4.1-2.9,7.1-5.4,9.1-7.3
				c0.2-0.2,0.4-0.3,0.5-0.5c0,0,0,0,0,0c1.4-1.4,2.1-2.3,2.3-2.6c1.3-1.8,0-4.4-2.3-4.5c-0.2,0-0.4,0-0.6,0l0,0h-0.9
				c-0.2,0-0.3,0-0.4,0c0,0,0,0,0,0h-3.5l-18.7,0c0.8-0.9,1.8-2,2.6-3.1c0,0,0,0,0-0.1c1.2-1.6,0-3.9-2-3.9h-8.9
				C59.8,47.9,51.2,58.4,43,65l0.5,0.7l0.6,0.9l0.6,0.9l0.3-0.1c0.5-0.2,0.9-0.4,1.4-0.7c7.3-3.5,12.4-6.8,15.7-9.2
				c1.2,1.3,3.7,3.9,7.1,6.8c0,0-0.1,0-0.1,0.1c-0.2,0.1-0.5,0.3-0.6,0.4c-5.1,3.6-14.9,8.5-29.4,12.2l-0.3,0.1l0.9,2.4l0.3,0
				c6.9-0.5,15.2-2.2,22.5-4.6c0.1,0,0.3-0.1,0.4-0.1c0,0,0,0,0,0c0,0,0,0,0,0c3.9-1.3,7.4-2.7,10.4-4.4c0.3-0.2,0.6-0.3,0.9-0.5
				c0.1,0,0.1,0,0.2-0.1c0,0,0.1,0,0.1-0.1c0.4-0.2,0.7-0.4,1.1-0.5c4.1,2.9,8.9,5.8,14.1,7.8c2.6,1.1,4.2,1.6,4.2,1.6s0,0,0,0
				c0.3,0.1,0.5,0.2,0.8,0.3c3.4,1.1,5.8,1.1,7.6,0.1c3.6-2,9.5-6.9,9.5-6.9s-2.1-0.2-3.1-0.4C102.9,70.7,97.2,69.8,91.5,68.3z
				 M83.9,51.3c-0.1,0.2-0.2,0.3-0.3,0.5c-2.2,2.4-4.6,4.7-6.9,6.7c-0.6,0.5-1.2,1-1.8,1.5c-1.7-1.2-3.4-2.5-5.1-4
				c-1.1-1-1.9-1.9-2.5-2.6c0,0,0,0,0,0c0.1-0.1,0.2-0.1,0.2-0.2c0.7-0.7,1.3-1.3,1.8-1.8H83.9z"/>
			<path class="st0" d="M415.4,73.9c-10.4-2.6-18.3-6-24.4-9.7c5.8-5.1,13.1-12.7,16.5-19.5c0-0.1,0.1-0.1,0.1-0.2
				c0.1-0.1,0.1-0.2,0.2-0.3c0,0,0,0,0-0.1c0-0.1,0-0.1,0.1-0.2c0.9-1.8-0.4-4-2.5-4c-0.1,0-0.1,0-0.2,0c0,0,0,0,0,0
				c0,0-0.1,0-0.1,0v0h-13.9V26.5h14.4c1.7,0,3-1.3,3-3v-1.8h-17.5V4.5h-14.1v17.2h-12.7v4.8h12.7v13.4h-12.8l0,0.1
				c-0.1,0-0.1,0-0.2,0l-0.1-0.1l0,0l0,0l-0.4-0.4c-0.9-0.9-1.8-1.8-1.8-1.8c-2.8,1.3-6.1,2.7-9.6,4.2V26.5h7.2c1.7,0,3-1.3,3-3
				v-1.8h-10.2V4.4h-13.7v17.2H327v4.8h11.5v21c-7.8,3.1-14,5.5-14,5.5c0.4,0.5,1.3,1.4,1.3,1.4l1,1l1.6,1.6
				c2.8,2.3,3.6,2.2,5.1,1.5l0,0c0,0,1.9-0.9,4.9-2.4v16.4c0,0.1,0,0.1,0,0.1v6.8h8.9c1.5,0,2.7-0.9,3.2-1.4l0,0
				c0.1-0.1,0.1-0.1,0.2-0.2l0,0c0.2-0.2,0.4-0.4,0.5-0.7c0,0,0,0,0,0c0-0.1,0.1-0.1,0.1-0.1l0,0c0.5-0.8,0.8-1.8,0.8-2.9V48.8
				c2.2-1.2,4.5-2.6,6.8-4l0,0l0.1,0c1.6-1,3.3-2,4.9-3c0.4,1.5,1,3.1,1,3.1c2.7,7,8.4,14.9,12.7,19.3c-2.5,2-4.7,3.5-5.9,4.3
				c-5.9,3.5-10,5.6-12.7,6.8c-1.1,0.4-2.1,0.8-3.2,1.2c-0.1,0-0.3,0.1-0.4,0.1c0,0-0.1,0.1-0.1,0.1c-0.4,0.1-0.6,0.2-0.6,0.2
				l0.2,0.5l0,0.1l0.6,1.3l0,0l0.2,0.5c0,0,8.9-0.9,18.7-4.9c0.8-0.3,1.6-0.7,2.4-1.1c2.3-1,4.6-2.2,6.9-3.5
				c5.5,4.1,11.2,7.4,15.9,9.1c4,1.4,6.7,0.4,11.1-2.1L415.4,73.9L415.4,73.9L415.4,73.9z M393.4,44.7c-2,5.4-5.8,10.2-9.8,14.2
				c-7.4-6.2-10.2-12.1-11.1-14.2H393.4z"/>
			<path class="st0" d="M27.3,12.5c0,0,1.8,5,2.6,7.5c0.8,2.5,1.4,6.7,3.1,10c1.3,2.5,2.9,2.9,3.9,3c0,0,0.1,0,0.1,0
				c1.1,0.1,3.1-0.5,4.2-2c1.6-2.1,1.8-6-0.1-9.7c-0.5-1-1-1.8-1.7-2.6c0,0,0,0,0,0c0,0,0,0,0-0.1c0,0,0,0,0,0
				c-3.5-4.3-8.5-8.8-8.5-8.8L29,11.2l-1.7,1.2L27.3,12.5z"/>
		</g>
	</g>
	<g>
		<g>
			<polygon class="st0" points="621.3,67.6 617.5,67.6 617.5,77.9 617.5,77.9 617.5,79.6 617.5,79.6 617.5,79.6 621.3,79.6 
				621.3,79.6 628.8,79.6 628.8,77.9 621.3,77.9 			"/>
			<polygon class="st0" points="446.2,72.4 439.9,72.4 439.9,67.6 436.5,67.6 436.5,79.6 439.9,79.6 439.9,74.1 446.2,74.1 
				446.2,79.6 449.6,79.6 449.6,67.6 446.2,67.6 			"/>
			<polygon class="st0" points="576.1,72.4 569.9,72.4 569.9,67.6 566.5,67.6 566.5,79.6 569.9,79.6 569.9,74.1 576.1,74.1 
				576.1,79.6 579.5,79.6 579.5,67.6 576.1,67.6 			"/>
			<polygon class="st0" points="459.4,72.8 455.5,67.8 451.7,67.8 456.6,74.3 456.6,79.6 460.4,79.6 460.4,74.1 464.5,67.7 
				464.6,67.7 462.7,67.7 			"/>
			<polygon class="st0" points="671.1,72.8 667.3,67.8 663.5,67.8 668.4,74.3 668.4,79.6 672.2,79.6 672.2,74.1 676.3,67.7 
				676.3,67.7 674.5,67.7 			"/>
			<polygon class="st0" points="479.8,75.2 477.4,67.7 476.7,67.7 476.7,67.6 474.9,67.6 472.8,75.1 470.1,67.7 466.5,67.7 
				470.8,79.6 471.7,79.6 471.6,79.6 473.5,79.6 475.4,72.2 477.8,79.6 478,79.6 477.9,79.6 479.7,79.6 479.8,79.6 479.8,79.6 
				479.8,79.4 484.7,67.7 484.7,67.6 482.9,67.6 			"/>
			<polygon class="st0" points="490.6,67.9 487.8,67.9 487.8,79.9 491.6,79.9 491.6,79.9 498,79.9 498,78.2 491.6,78.2 491.6,74.4 
				497.9,74.4 497.9,72.7 491.6,72.7 491.6,69.6 498,69.6 498,67.9 490.6,67.9 			"/>
			<polygon class="st0" points="520,69.3 524.6,69.3 524.6,79.6 528.4,79.6 528.4,69.3 533,69.3 533,67.6 520,67.6 			"/>
			<polygon class="st0" points="738.9,69.3 743.5,69.3 743.5,79.6 747.3,79.6 747.3,69.3 751.9,69.3 751.9,67.6 738.9,67.6 			"/>
			<polygon class="st0" points="593.7,75.5 586,67.8 586,67.7 583.9,67.7 583.9,79.7 586,79.7 586,71.7 593.7,79.5 593.7,79.7 
				595.7,79.7 595.7,67.7 593.7,67.7 			"/>
			<polygon class="st0" points="730.9,67.6 727.1,67.6 727.1,77.9 727.1,77.9 727.1,79.6 727.1,79.6 727.1,79.6 730.9,79.6 
				730.9,79.6 738.3,79.6 738.3,77.9 730.9,77.9 			"/>
			<polygon class="st0" points="539.1,67.9 536.3,67.9 536.3,79.9 540.1,79.9 540.1,79.9 546.5,79.9 546.5,78.2 540.1,78.2 
				540.1,74.4 546.4,74.4 546.4,72.7 540.1,72.7 540.1,69.6 546.5,69.6 546.5,67.9 539.1,67.9 			"/>
			<path class="st0" d="M606.6,67.6c-4.2,0-7.6,2.6-7.6,6s3.3,6,7.6,6s7.6-2.6,7.6-6S610.8,67.6,606.6,67.6z M610.7,73.6
				c0,2.5-1.8,4.6-4.1,4.6s-4.1-2.1-4.1-4.6s1.8-4.6,4.1-4.6S610.7,71.1,610.7,73.6z"/>
			<path class="st0" d="M705.3,67.6c-4.2,0-7.6,2.6-7.6,6s3.3,6,7.6,6s7.6-2.6,7.6-6S709.6,67.6,705.3,67.6z M709.5,73.6
				c0,2.5-1.8,4.6-4.1,4.6s-4.1-2.1-4.1-4.6s1.8-4.6,4.1-4.6S709.5,71.1,709.5,73.6z"/>
			<path class="st0" d="M637.7,67.6c-4.2,0-7.6,2.6-7.6,6s3.3,6,7.6,6c4.2,0,7.6-2.6,7.6-6S641.9,67.6,637.7,67.6z M641.8,73.6
				c0,2.5-1.8,4.6-4.1,4.6s-4.1-2.1-4.1-4.6s1.8-4.6,4.1-4.6S641.8,71.1,641.8,73.6z"/>
			<path class="st0" d="M549.8,73.6c0,3.4,3.8,6.1,8.5,6.1c1.5,0,2.9-0.3,4.1-0.8v-2.7c-0.9,1.1-2.3,1.9-3.9,1.9
				c-2.7,0-4.9-2-4.9-4.5c0-2.5,2.2-4.5,4.9-4.5c1.6,0,3.1,0.7,3.9,1.9v-2.7c-1.2-0.5-2.6-0.8-4.1-0.8
				C553.6,67.5,549.8,70.3,549.8,73.6z"/>
			<path class="st0" d="M682.5,73.6c0,3.4,3.8,6.1,8.5,6.1c1.5,0,2.9-0.3,4.1-0.8v-2.7c-0.9,1.1-2.3,1.9-3.9,1.9
				c-2.7,0-4.9-2-4.9-4.5c0-2.5,2.2-4.5,4.9-4.5c1.6,0,3.1,0.7,3.9,1.9v-2.7c-1.2-0.5-2.6-0.8-4.1-0.8
				C686.3,67.5,682.5,70.3,682.5,73.6z"/>
			<path class="st0" d="M661,73.9h-2.3h-0.4v3.8c0.1,0,0.2-0.1,0.4-0.2c0.2-0.1,0.5-0.2,0.7-0.4c-0.3,0.2-0.7,0.4-1.1,0.5
				c-0.5,0.2-1.1,0.3-1.7,0.3c-2.7,0-4.9-2-4.9-4.5c0-2.5,2.2-4.5,4.9-4.5c1.9,0,3.6,1,4.4,2.5v-3c-1.3-0.6-2.9-0.9-4.5-0.9
				c-4.7,0-8.5,2.7-8.5,6.1s3.8,6.1,8.5,6.1c0.7,0,1.3-0.1,2-0.2c0.9-0.2,1.8-0.4,2.5-0.8c0.2-0.1,0.4-0.2,0.7-0.4v-4.5h-0.2H661z
				 M659.4,77.2c0.2-0.1,0.4-0.3,0.6-0.4C659.8,76.9,659.6,77,659.4,77.2z M660.1,76.6c0.1-0.1,0.3-0.3,0.4-0.4
				C660.4,76.3,660.3,76.4,660.1,76.6z"/>
			<path class="st0" d="M510.5,73.2c1.4-0.5,2.4-1.3,2.4-2.6c0-2-2.3-2.9-5.1-3v0h-5.6v0v1.7v0.3v2.1v0.8v1.7v0.5v3.3
				c0,0,0,0.1,0,0.1v1.7v0h3.8v0h1.8v0c3.1,0,5.6-1.1,5.6-3.4C513.4,74.7,512.3,73.7,510.5,73.2z M509.5,70.9c0,0.8-0.7,1.3-1.6,1.6
				c-0.4,0.1-1.3,0.1-1.7,0.1v-0.1v-3.1v-0.1c0.4,0,1.4,0.1,1.7,0.1C508.8,69.5,509.5,70,509.5,70.9z M507.6,77.9
				c-0.3,0.1-1.2,0.1-1.5,0.1v-0.1v-3.8V74c0.4,0,1.4,0,1.7,0.1c1.1,0.3,1.9,0.9,1.9,1.9C509.8,77.1,508.9,77.7,507.6,77.9z"/>
			<path class="st0" d="M761,67.6L761,67.6l-6.2,0v0h-0.1v3v0.6V76v0.6v3h3.8v0h1h1c0.1,0,0.2,0,0.2,0c4.1,0,7.5-2.1,7.5-6
				C768.3,69.8,765.1,67.7,761,67.6z M761,77.9c-0.6,0.2-1.2,0.2-1.9,0.2c-0.3,0-0.2,0-0.5-0.1v-0.2v-8.6v-0.1
				c0.3,0,0.2-0.1,0.5-0.1c0.7,0,1.3,0.1,1.9,0.2c2.1,0.5,3.7,2,3.7,4.3C764.6,76,763.1,77.4,761,77.9z"/>
			<path class="st0" d="M715.5,77.2c-0.3,0-0.6,0.1-0.8,0.3c-0.2,0.2-0.4,0.5-0.4,0.8c0,0.3,0.1,0.6,0.4,0.8
				c0.2,0.2,0.5,0.3,0.8,0.3c0.3,0,0.6-0.1,0.8-0.3c0.2-0.2,0.4-0.5,0.4-0.8c0-0.3-0.1-0.6-0.4-0.8
				C716.1,77.3,715.8,77.2,715.5,77.2z"/>
			<path class="st0" d="M719.1,77.2c-0.3,0-0.6,0.1-0.8,0.3s-0.3,0.4-0.3,0.7c0,0.3,0.1,0.5,0.3,0.7c0.2,0.2,0.5,0.3,0.8,0.4
				c0,0.5-0.4,0.6-1.2,0.9l0.4,0.6c1.5-0.5,2.1-1.2,2.1-2.3c0-0.4-0.1-0.7-0.4-0.9C719.8,77.4,719.4,77.2,719.1,77.2z"/>
		</g>
		<polygon class="st0" points="648.1,17.8 646.5,17.8 633.1,17.8 632.6,17.8 625,41.1 616.6,17.8 616.1,17.8 616.1,17.8 602.1,17.8 
			602.1,17.8 601.5,17.8 592.7,41.1 585.5,17.8 585,17.8 571.2,17.8 569.6,17.8 569.7,18 583.8,55 584.6,55 600,55 600.4,55 
			608.7,33 617.4,55 617.7,55 633.1,55 633.9,55 648,18 		"/>
		<polygon class="st0" points="536,19.8 522.2,3.9 504,3.9 526.9,30.3 526.9,55 545.2,55 545.2,30.3 568.1,3.9 549.8,3.9 		"/>
		<polygon class="st0" points="480.7,17.8 454.1,17.8 454.1,3.8 435.8,3.8 435.8,55 454.1,55 454.1,30.2 480.7,30.2 480.7,55 
			499,55 499,3.8 480.7,3.8 		"/>
		<path class="st0" d="M744.6,18.1c-0.2,0-0.4,0-0.6,0c-4.2,0.1-8.1,1-11.5,2.5V3.8h-18.3v51.1h17.5l0.8-2.4c1.1,0.4,2.1,0.7,3.1,1
			c1.7,0.5,3.5,0.9,5.3,1.2c1.2,0.1,2.4,0.2,3.7,0.2c13.1,0,23.8-6.4,23.8-18.4C768.3,24.5,757.7,18.1,744.6,18.1z M737.1,27.1
			c1.6-0.3,3.1-0.5,4.7-0.5c3.6,0,6.2,0.7,7.9,2.2c1.7,1.5,2.6,3.9,2.6,7.4c0,3.4-1.1,6-3.2,7.7c-2.1,1.7-5.3,2.6-9.6,2.6
			c-1.2,0-2.4-0.1-3.6-0.2c-1.2-0.1-2.4-0.3-3.6-0.6V28.5C734,27.9,735.5,27.5,737.1,27.1z"/>
		<path class="st0" d="M704.9,36.4c0-10.6-9.6-18.7-24.9-18.7c-0.6,0-1.3,0-1.9,0c-3.3,0-6.5,0.4-9.5,1.1c-11.4,2.4-18,9.5-18,17.6
			c0,6.8,5.4,12.8,13.4,16.1c2.9,1.2,6.2,2,9.7,2.4l0,0c0,0,7.3,1.3,19.4-0.4c1.4-0.2,2.9-0.3,4.2-0.5c2.2-0.3,3.3-0.6,4.5-0.9
			c0.8-0.2,1.6-0.4,2.4-0.6v-9.7h-0.3c-0.1,0.1-0.2,0.1-0.4,0.2c-0.7,0.3-1.6,0.7-2.7,1.1c-1.3,0.5-2.1,0.9-3.6,1.3
			c-1.7,0.5-3.6,0.8-5.6,1.1c-2.1,0.3-4.1,0.4-6.3,0.4c-2.5,0-4.5-0.1-6.6-0.4c-2.1-0.3-3.9-0.7-5.5-1.4c-1.6-0.6-2.9-1.2-3.9-2.3
			c-0.9-1-1.5-2.4-1.7-4h36.8C704.9,37.9,704.9,37.2,704.9,36.4z M668,31.1c0.4-1.8,1.4-3.3,3.1-4.4c2-1.3,4.7-2,8.2-2
			c3.4,0,6,0.7,7.6,1.9c1.4,1,2.2,2.6,2.5,4.5H668z"/>
	</g>
</g>
</svg>
